<svg id="Layer_1" data-name="Layer 1" xmlns="http://www.w3.org/2000/svg" viewBox="0 0 44 44"><defs><style>.cls-1{fill-rule:evenodd;}</style></defs><path class="cls-1" d="M11.51,6.48a1.12,1.12,0,0,0-.25-.11,1.1,1.1,0,0,0-.36,0,1,1,0,0,0-.4.13,1.18,1.18,0,0,0-.31.28,1,1,0,0,0-.15.33.63.63,0,0,0,0,.27v29.3a.63.63,0,0,0,0,.27,1,1,0,0,0,.15.33,1.18,1.18,0,0,0,.31.28,1,1,0,0,0,.4.13,1.1,1.1,0,0,0,.36,0,1.12,1.12,0,0,0,.25-.11L37.15,22.87a.87.87,0,0,0,.22-.17.84.84,0,0,0,.2-.29,1,1,0,0,0,0-.82.84.84,0,0,0-.2-.29.87.87,0,0,0-.22-.17ZM12,9.05V35L34.66,22Z"/></svg>