<svg id="Layer_1" data-name="Layer 1" xmlns="http://www.w3.org/2000/svg" xmlns:xlink="http://www.w3.org/1999/xlink" viewBox="0 0 9 9"><defs><style>.cls-1{fill:none;}.cls-2{clip-path:url(#clip-path);}</style><clipPath id="clip-path"><rect class="cls-1" width="9" height="9"/></clipPath></defs><g class="cls-2"><path d="M2.55,0a.32.32,0,0,1,.23.09.36.36,0,0,1,.09.22V.9H6.25V.32A.31.31,0,0,1,6.34.1.33.33,0,0,1,6.57,0a.32.32,0,0,1,.22.1.31.31,0,0,1,.09.22V.9H8.1a.91.91,0,0,1,.64.27A.88.88,0,0,1,9,1.8V8.1a.89.89,0,0,1-.9.9H.9A.89.89,0,0,1,0,8.1V1.8a.88.88,0,0,1,.26-.63A.91.91,0,0,1,.9.9H2.24V.31A.31.31,0,0,1,2.55,0ZM.63,3.48V8.1a.3.3,0,0,0,0,.1.15.15,0,0,0,.06.09.15.15,0,0,0,.09.06l.1,0H8.1l.1,0a.28.28,0,0,0,.15-.15.3.3,0,0,0,0-.1V3.49ZM3,6.58v.75H2.25V6.58Zm1.87,0v.75H4.13V6.58Zm1.88,0v.75H6V6.58ZM3,4.79v.75H2.25V4.79Zm1.87,0v.75H4.13V4.79Zm1.88,0v.75H6V4.79ZM2.24,1.53H.9l-.1,0-.09.06a.24.24,0,0,0-.06.09.36.36,0,0,0,0,.1V2.85H8.37V1.8a.36.36,0,0,0,0-.1.24.24,0,0,0-.06-.09L8.2,1.55l-.1,0H6.88V2a.28.28,0,0,1-.09.22.32.32,0,0,1-.22.1.33.33,0,0,1-.23-.1A.28.28,0,0,1,6.25,2V1.53H2.87V2a.36.36,0,0,1-.09.22.32.32,0,0,1-.23.09A.31.31,0,0,1,2.24,2Z"/></g></svg>