<svg width="138" height="12" viewBox="0 0 138 12" fill="none" xmlns="http://www.w3.org/2000/svg">
<path d="M0 10.7519L4.58009 0.333862H6.27273L10.8528 10.7519H8.92785L7.8658 8.25883H2.95383L1.89178 10.7519H0ZM3.60101 6.64082H7.18543L5.39322 2.49672L3.60101 6.64082Z" fill="#5F6882"/>
<path d="M23.6955 11.0663L22.4509 9.96007C21.5382 10.604 20.4762 10.9342 19.2814 10.9342C17.7049 10.9342 16.4105 10.4224 15.3983 9.38221C14.386 8.34206 13.8716 7.08727 13.8716 5.58483C13.8716 4.11541 14.386 2.84411 15.4149 1.80396C16.4437 0.763805 17.7381 0.235474 19.3146 0.235474C20.8911 0.235474 22.1854 0.747295 23.1977 1.78745C24.21 2.8276 24.7244 4.08239 24.7244 5.58483C24.7244 6.77357 24.3759 7.83023 23.6623 8.75481L24.8572 9.76194L23.6955 11.0663ZM19.3146 9.26663C19.9784 9.26663 20.5758 9.10153 21.0902 8.77132L19.3146 7.26888L20.4928 5.93154L22.285 7.54956C22.6335 7.00472 22.816 6.36081 22.816 5.58483C22.816 4.56119 22.4841 3.68614 21.8204 2.97619C21.1566 2.26625 20.3103 1.90302 19.2814 1.90302C18.2691 1.90302 17.4228 2.24974 16.759 2.95968C16.0952 3.66963 15.7634 4.54467 15.7634 5.56832C15.7634 6.59196 16.0952 7.46701 16.759 8.17695C17.4394 8.90341 18.2857 9.26663 19.3146 9.26663Z" fill="#5F6882"/>
<path d="M34.0186 10.9179C32.6413 10.9179 31.5626 10.5217 30.7827 9.7457C30.0028 8.96972 29.6045 7.84701 29.6045 6.36108V0.417358H31.4299V6.29504C31.4299 7.23613 31.6622 7.96259 32.1269 8.47441C32.5915 8.98623 33.2387 9.25039 34.0518 9.25039C34.8815 9.25039 35.5121 9.00274 35.9768 8.50743C36.4414 8.01212 36.6738 7.30217 36.6738 6.36108V0.417358H38.4992V6.27853C38.4992 7.78097 38.1009 8.9367 37.3044 9.72919C36.5078 10.5217 35.4126 10.9179 34.0186 10.9179Z" fill="#5F6882"/>
<path d="M44.5229 10.7528V0.417358H46.3483V10.7528H44.5229Z" fill="#5F6882"/>
<path d="M52.5034 10.7528V0.417358H54.3288V9.1018H59.7884V10.7528H52.5034Z" fill="#5F6882"/>
<path d="M62.9585 10.7519L67.5386 0.333862H69.2312L73.8113 10.7519H71.8863L70.8243 8.25883H65.9123L64.8503 10.7519H62.9585ZM66.5761 6.64082H70.1605L68.3683 2.49672L66.5761 6.64082Z" fill="#5F6882"/>
<path d="M78.0122 10.7528V0.417358H79.9538L83.1233 5.30442L86.2763 0.417358H88.2178V10.7528H86.3924V3.33969L83.1067 8.21025H83.0403L79.7878 3.37271V10.7528H78.0122Z" fill="#5F6882"/>
<path d="M93.7261 10.7528V0.417358H101.426V2.03537H95.5515V4.72656H100.762V6.34458H95.5515V9.11831H101.509V10.7363H93.7261V10.7528Z" fill="#5F6882"/>
<path d="M106.488 10.7528V0.417358H110.371C111.997 0.417358 113.325 0.912669 114.354 1.88678C115.382 2.86089 115.897 4.09917 115.897 5.5851C115.897 7.05452 115.382 8.2928 114.354 9.28342C113.325 10.274 111.997 10.7528 110.388 10.7528H106.488ZM108.313 9.1018H110.354C111.433 9.1018 112.296 8.7716 112.96 8.12769C113.623 7.46728 113.955 6.62525 113.955 5.60161C113.955 4.57797 113.623 3.73594 112.96 3.07553C112.296 2.41511 111.433 2.0849 110.354 2.0849H108.313V9.1018Z" fill="#5F6882"/>
<path d="M120.859 10.7528V0.417358H122.684V10.7528H120.859Z" fill="#5F6882"/>
<path d="M127.147 10.7519L131.727 0.333862H133.42L138 10.7519H136.075L135.013 8.25883H130.101L129.039 10.7519H127.147ZM130.748 6.64082H134.332L132.54 2.49672L130.748 6.64082Z" fill="#5F6882"/>
</svg>
