<svg id="Layer_1" data-name="Layer 1" xmlns="http://www.w3.org/2000/svg" viewBox="0 0 872.89 598.67"><defs><style>.cls-1{fill:#fff;}</style></defs><path class="cls-1" d="M2.39,558.19a.5.5,0,0,0,.65-.27,48.43,48.43,0,0,1,7.29-11.67.5.5,0,0,0-.08-.7.5.5,0,0,0-.7.07,49.59,49.59,0,0,0-7.43,11.91A.5.5,0,0,0,2.39,558.19Z"/><path class="cls-1" d="M1.09,565.37a.5.5,0,0,0-.45-.55.51.51,0,0,0-.55.45,19.26,19.26,0,0,0,3.69,13.42.5.5,0,0,0,.7.12.51.51,0,0,0,.11-.7A18.22,18.22,0,0,1,1.09,565.37Z"/><path class="cls-1" d="M25.11,530.39a133.24,133.24,0,0,0-10.21,9.28.5.5,0,1,0,.71.71,127.63,127.63,0,0,1,10.14-9.21.5.5,0,1,0-.64-.78Z"/><path class="cls-1" d="M43.08,595.6a116.88,116.88,0,0,1-13.5-2.94A.51.51,0,0,0,29,593a.5.5,0,0,0,.34.61,117.81,117.81,0,0,0,13.62,3,.5.5,0,1,0,.16-1Z"/><path class="cls-1" d="M32,526.27c1.81-1.36,3.72-2.75,5.71-4.15l-.58-.82q-3,2.12-5.73,4.17a.5.5,0,0,0-.1.7A.49.49,0,0,0,32,526.27Z"/><path class="cls-1" d="M479.06,273.2a.5.5,0,0,0,.51-.48,43,43,0,0,1,.81-6.92,52.69,52.69,0,0,1,1.74-6.56.51.51,0,0,0-.31-.64.49.49,0,0,0-.63.32,51,51,0,0,0-1.78,6.69,43.74,43.74,0,0,0-.83,7.07A.51.51,0,0,0,479.06,273.2Z"/><path class="cls-1" d="M503.37,316.12a.5.5,0,0,0,.07.7c3.49,2.88,7.28,5.69,11.32,8.44a.5.5,0,1,0,.57-.82q-6-4.11-11.25-8.39A.52.52,0,0,0,503.37,316.12Z"/><path class="cls-1" d="M500,237.75A53.89,53.89,0,0,1,512.55,233a.5.5,0,0,0,.37-.6.51.51,0,0,0-.61-.37,55,55,0,0,0-12.75,4.86.5.5,0,1,0,.48.88Z"/><path class="cls-1" d="M520.11,231.47a117.89,117.89,0,0,1,13.53-1.18.5.5,0,1,0,0-1A115.83,115.83,0,0,0,520,230.48a.51.51,0,0,0-.42.57A.5.5,0,0,0,520.11,231.47Z"/><path class="cls-1" d="M64.75,597.57c-4.76-.15-9.38-.46-13.83-.93a.5.5,0,0,0-.55.44.5.5,0,0,0,.45.55q6.7.72,13.9.94a.49.49,0,0,0,.51-.48A.5.5,0,0,0,64.75,597.57Z"/><path class="cls-1" d="M479.53,280.19a.49.49,0,0,0-.41.58,44.09,44.09,0,0,0,4.63,13.35.5.5,0,0,0,.89-.47,43,43,0,0,1-4.54-13A.49.49,0,0,0,479.53,280.19Z"/><path class="cls-1" d="M484.53,252.43a.5.5,0,0,0,.68-.19A35.61,35.61,0,0,1,493.7,242a.5.5,0,0,0-.64-.78,37,37,0,0,0-8.72,10.51A.49.49,0,0,0,484.53,252.43Z"/><path class="cls-1" d="M291.75,523.39q-6.37,2.79-12.79,5.67a.5.5,0,0,0,.4.92q6.42-2.88,12.79-5.68a.5.5,0,1,0-.4-.91Z"/><path class="cls-1" d="M211.55,559.51q-6.42,2.81-12.84,5.55a.51.51,0,0,0-.26.66.5.5,0,0,0,.65.26q6.43-2.73,12.85-5.56a.5.5,0,1,0-.4-.91Z"/><path class="cls-1" d="M271.66,532.35l-12.74,5.78a.51.51,0,0,0-.25.67.49.49,0,0,0,.66.24l12.74-5.78a.5.5,0,1,0-.41-.91Z"/><path class="cls-1" d="M231.63,550.55q-6.39,2.88-12.77,5.73a.49.49,0,0,0-.25.66.5.5,0,0,0,.66.25q6.39-2.84,12.77-5.73a.5.5,0,1,0-.41-.91Z"/><path class="cls-1" d="M251.64,541.45l-12.73,5.8a.51.51,0,0,0-.25.66.49.49,0,0,0,.66.25l12.74-5.8a.5.5,0,0,0,.25-.66A.52.52,0,0,0,251.64,541.45Z"/><path class="cls-1" d="M312,514.73q-6.42,2.67-12.9,5.46a.5.5,0,0,0,.4.92q6.47-2.79,12.88-5.46a.5.5,0,1,0-.38-.92Z"/><path class="cls-1" d="M86.53,597.17c-4.69.31-9.32.48-13.86.5a.51.51,0,0,0-.5.51.49.49,0,0,0,.5.49q6.85,0,13.93-.51a.49.49,0,0,0,.46-.53A.5.5,0,0,0,86.53,597.17Z"/><path class="cls-1" d="M671.15,140.18a.5.5,0,0,0,.71,0,.51.51,0,0,0,0-.71,15.32,15.32,0,0,1-4.15-6,8.58,8.58,0,0,1,.28-6.23.51.51,0,0,0-.27-.65.5.5,0,0,0-.66.27,9.65,9.65,0,0,0-.3,6.92A16.37,16.37,0,0,0,671.15,140.18Z"/><path class="cls-1" d="M191.35,568.17q-6.48,2.72-12.95,5.3a.5.5,0,1,0,.37.92q6.48-2.58,13-5.29a.5.5,0,0,0,.27-.66A.51.51,0,0,0,191.35,568.17Z"/><path class="cls-1" d="M108.16,594.75c-4.58.72-9.17,1.31-13.74,1.76a.51.51,0,0,0-.45.55.52.52,0,0,0,.55.45c4.58-.46,9.19-1,13.8-1.77a.49.49,0,0,0,.41-.57A.51.51,0,0,0,108.16,594.75Z"/><path class="cls-1" d="M129.5,590.39c-4.46,1.14-9,2.14-13.53,3a.49.49,0,0,0-.4.58.5.5,0,0,0,.58.4c4.57-.87,9.11-1.88,13.59-3a.5.5,0,0,0,.36-.61A.51.51,0,0,0,129.5,590.39Z"/><path class="cls-1" d="M171,576.39q-6.56,2.54-13.09,4.92a.5.5,0,0,0-.3.64.52.52,0,0,0,.65.3q6.54-2.38,13.1-4.93a.49.49,0,0,0,.29-.64A.5.5,0,0,0,171,576.39Z"/><path class="cls-1" d="M150.35,584c-2.21.77-4.41,1.52-6.62,2.25s-4.38,1.42-6.6,2.07a.51.51,0,0,0-.34.62.5.5,0,0,0,.62.34q3.36-1,6.64-2.08c2.21-.73,4.41-1.48,6.62-2.25a.5.5,0,0,0-.32-.95Z"/><path class="cls-1" d="M755.21,175.38a.49.49,0,0,0-.3-.64c-4.47-1.63-9-3.25-13.63-4.85a.5.5,0,1,0-.33,1c4.59,1.6,9.16,3.21,13.62,4.83A.49.49,0,0,0,755.21,175.38Z"/><path class="cls-1" d="M753.43,245.57A132.79,132.79,0,0,0,766.57,242a.5.5,0,0,0,.32-.63.49.49,0,0,0-.63-.32,130.23,130.23,0,0,1-13,3.53.5.5,0,0,0,.22,1Z"/><path class="cls-1" d="M770.82,75.89A129.55,129.55,0,0,0,783,69.46a.5.5,0,1,0-.52-.85A126.28,126.28,0,0,1,770.39,75a.51.51,0,0,0-.24.67A.5.5,0,0,0,770.82,75.89Z"/><path class="cls-1" d="M332.41,506.57q-6.48,2.48-13,5.12a.5.5,0,0,0,.38.93q6.54-2.64,13-5.12a.49.49,0,0,0,.29-.64A.5.5,0,0,0,332.41,506.57Z"/><path class="cls-1" d="M730.71,91.88c4.35-1.67,8.64-3.28,12.83-4.87a.5.5,0,0,0-.35-.94c-4.19,1.59-8.48,3.2-12.84,4.88a.5.5,0,0,0,.36.93Z"/><path class="cls-1" d="M782.89,186.76a.51.51,0,0,0,.23.67,95.08,95.08,0,0,1,12.48,7.16.51.51,0,0,0,.7-.12.5.5,0,0,0-.13-.7,96.76,96.76,0,0,0-12.61-7.24A.5.5,0,0,0,782.89,186.76Z"/><path class="cls-1" d="M776.29,183.71a.49.49,0,0,0-.26-.65c-4.22-1.85-8.71-3.65-13.37-5.44a.5.5,0,1,0-.36.94c4.65,1.78,9.13,3.58,13.33,5.41A.49.49,0,0,0,776.29,183.71Z"/><path class="cls-1" d="M672.86,120.91a44.17,44.17,0,0,1,5.8-4.28c1.93-1.22,3.88-2.41,5.85-3.55a.5.5,0,0,0-.51-.87q-3,1.73-5.88,3.57a46.48,46.48,0,0,0-5.92,4.38.48.48,0,0,0,0,.7A.49.49,0,0,0,672.86,120.91Z"/><path class="cls-1" d="M805.59,27.39a.49.49,0,0,0,.55.45.5.5,0,0,0,.44-.55,70.45,70.45,0,0,0-2.9-13.51.5.5,0,1,0-.95.29A70.65,70.65,0,0,1,805.59,27.39Z"/><path class="cls-1" d="M802.85,48.87a.5.5,0,0,0,.67-.25,36.78,36.78,0,0,0,3.27-13.41.49.49,0,0,0-.47-.52.5.5,0,0,0-.53.46,35.73,35.73,0,0,1-3.18,13.06A.49.49,0,0,0,802.85,48.87Z"/><path class="cls-1" d="M789.54,65.06a50.13,50.13,0,0,0,9.89-9.65.5.5,0,1,0-.8-.6,48.93,48.93,0,0,1-9.69,9.45.5.5,0,0,0-.1.7A.51.51,0,0,0,789.54,65.06Z"/><path class="cls-1" d="M806.45,212.32a.5.5,0,0,0,.38.6.52.52,0,0,0,.6-.39c1.05-4.8-.89-9.25-4.85-13.4a.49.49,0,0,0-.7,0,.5.5,0,0,0,0,.71C805.69,203.83,807.4,208,806.45,212.32Z"/><path class="cls-1" d="M800.78,7a.5.5,0,0,0,.28-.65c-.81-2.06-1.72-4.18-2.71-6.37l-.91.42c1,2.17,1.88,4.28,2.69,6.32A.5.5,0,0,0,800.78,7Z"/><path class="cls-1" d="M750.88,84.21c4.41-1.7,8.68-3.4,12.76-5.13a.5.5,0,0,0,.26-.66.49.49,0,0,0-.65-.26c-4.07,1.73-8.33,3.42-12.73,5.12a.5.5,0,0,0,.36.93Z"/><path class="cls-1" d="M725,248.7a.5.5,0,0,0-.53-.47q-6.67.33-13.54.28a.5.5,0,0,0,0,1c4.58,0,9.12-.06,13.59-.28A.51.51,0,0,0,725,248.7Z"/><path class="cls-1" d="M711,425.07a.52.52,0,0,0,.71-.08.5.5,0,0,0-.08-.7Q706.32,420,700.25,416a.5.5,0,1,0-.56.83Q705.72,420.87,711,425.07Z"/><path class="cls-1" d="M711.73,160.55a.5.5,0,1,0,.34-.93c-4.7-1.73-9.23-3.47-13.48-5.21a.5.5,0,1,0-.38.92C702.48,157.08,707,158.82,711.73,160.55Z"/><path class="cls-1" d="M726.69,440.33a.49.49,0,1,0,.77-.62,90.2,90.2,0,0,0-9.69-10.2.51.51,0,0,0-.71,0,.49.49,0,0,0,0,.7A90.85,90.85,0,0,1,726.69,440.33Z"/><path class="cls-1" d="M691.34,109.27q6.07-3.24,12.27-6.09a.5.5,0,0,0,.24-.67.49.49,0,0,0-.66-.24c-4.13,1.92-8.25,4-12.32,6.12a.5.5,0,1,0,.47.88Z"/><path class="cls-1" d="M710.75,100c4.23-1.84,8.47-3.58,12.67-5.24a.51.51,0,0,0,.28-.65.5.5,0,0,0-.65-.28c-4.21,1.67-8.45,3.41-12.7,5.25a.51.51,0,0,0-.26.66A.5.5,0,0,0,710.75,100Z"/><path class="cls-1" d="M738,461.33a.5.5,0,0,0,.36-.61,47,47,0,0,0-2.89-8.22l0,0h0c-.41-.88-.84-1.76-1.3-2.63-.62-1.34-1.23-2.8-1.81-4.37a.49.49,0,0,0-.64-.3.5.5,0,0,0-.3.64c0,.1.08.19.11.29l-.09,0a.51.51,0,0,0-.16.69c.72,1.14,1.37,2.29,2,3.46.44,1,.88,1.85,1.31,2.65a45.76,45.76,0,0,1,2.83,8A.5.5,0,0,0,738,461.33Z"/><path class="cls-1" d="M689.52,248.66c4.56.32,9.1.56,13.59.7a.5.5,0,0,0,.52-.48.5.5,0,0,0-.49-.52q-6.72-.21-13.55-.7a.5.5,0,0,0-.07,1Z"/><path class="cls-1" d="M733.78,167.82a.5.5,0,0,0-.3-.64c-4.6-1.59-9.17-3.18-13.64-4.76a.49.49,0,0,0-.64.3.51.51,0,0,0,.31.64c4.47,1.59,9,3.17,13.64,4.77A.5.5,0,0,0,733.78,167.82Z"/><path class="cls-1" d="M729.59,421.22a.5.5,0,0,0-.6.37,37.84,37.84,0,0,0,0,15.61.51.51,0,0,0,.59.39.5.5,0,0,0,.4-.58,36.51,36.51,0,0,1-.06-15.19A.5.5,0,0,0,729.59,421.22Z"/><path class="cls-1" d="M691.27,151.8a.5.5,0,0,0-.25-.66,103.73,103.73,0,0,1-12.68-6.71.5.5,0,0,0-.54.85,108.22,108.22,0,0,0,12.81,6.77A.5.5,0,0,0,691.27,151.8Z"/><path class="cls-1" d="M668.37,245.66a.5.5,0,1,0-.12,1c4.52.52,9,1,13.53,1.39a.49.49,0,0,0,.54-.45.48.48,0,0,0-.45-.54C677.39,246.65,672.88,246.18,668.37,245.66Z"/><path class="cls-1" d="M22.13,590.17a49.35,49.35,0,0,1-12.07-6.55.5.5,0,1,0-.61.79,50.54,50.54,0,0,0,12.31,6.69.5.5,0,0,0,.37-.93Z"/><path class="cls-1" d="M693.65,412.34a.5.5,0,0,0-.16-.69q-5.84-3.6-12.16-7.09a.51.51,0,0,0-.68.2.5.5,0,0,0,.19.68q6.3,3.48,12.12,7.06A.49.49,0,0,0,693.65,412.34Z"/><path class="cls-1" d="M734.05,492.54a.51.51,0,0,0-.68.2,39.7,39.7,0,0,1-8.25,10.52.5.5,0,0,0,0,.71.5.5,0,0,0,.7,0,41.11,41.11,0,0,0,8.46-10.78A.49.49,0,0,0,734.05,492.54Z"/><path class="cls-1" d="M674.47,401.43a.5.5,0,0,0-.21-.67q-6.12-3.21-12.55-6.34a.5.5,0,1,0-.44.9q6.4,3.12,12.52,6.32A.5.5,0,0,0,674.47,401.43Z"/><path class="cls-1" d="M719,507.93a61.77,61.77,0,0,1-12.08,6,.5.5,0,0,0,.34.94,61.86,61.86,0,0,0,12.28-6.06.5.5,0,0,0-.54-.84Z"/><path class="cls-1" d="M699.57,516.23a114.3,114.3,0,0,1-13.27,2.71.5.5,0,1,0,.15,1,113,113,0,0,0,13.38-2.72.5.5,0,0,0,.36-.61A.51.51,0,0,0,699.57,516.23Z"/><path class="cls-1" d="M660.66,244.72q-6.72-.87-13.45-1.84a.5.5,0,1,0-.14,1q6.72,1,13.47,1.84a.5.5,0,1,0,.12-1Z"/><path class="cls-1" d="M678.6,519.86q-6.52.61-13.53.8a.5.5,0,0,0-.49.51.51.51,0,0,0,.52.49c4.68-.13,9.22-.39,13.59-.81a.5.5,0,1,0-.09-1Z"/><path class="cls-1" d="M636,519.92q-6.66-.46-13.54-1.13a.5.5,0,1,0-.09,1q6.88.68,13.56,1.14a.51.51,0,0,0,.53-.47A.49.49,0,0,0,636,519.92Z"/><path class="cls-1" d="M657.31,520.74q-6.63,0-13.6-.37a.5.5,0,0,0-.05,1c4.65.22,9.21.35,13.64.37a.51.51,0,0,0,.51-.5A.5.5,0,0,0,657.31,520.74Z"/><path class="cls-1" d="M618.44,238.43,605,236.28a.5.5,0,0,0-.57.42.5.5,0,0,0,.42.57l13.41,2.14a.5.5,0,1,0,.16-1Z"/><path class="cls-1" d="M654.69,391.61a.5.5,0,0,0-.23-.67q-6.29-3-12.76-5.87a.5.5,0,0,0-.67.25.51.51,0,0,0,.25.66q6.47,2.91,12.75,5.87A.49.49,0,0,0,654.69,391.61Z"/><path class="cls-1" d="M639.54,241.74q-6.75-1-13.42-2.09a.51.51,0,0,0-.57.42.49.49,0,0,0,.41.57q6.67,1.06,13.43,2.09a.51.51,0,0,0,.57-.42A.51.51,0,0,0,639.54,241.74Z"/><path class="cls-1" d="M634.61,382.44a.51.51,0,0,0-.26-.66Q628,379,621.49,376.16a.49.49,0,0,0-.66.26.51.51,0,0,0,.26.66q6.46,2.79,12.86,5.62A.5.5,0,0,0,634.61,382.44Z"/><path class="cls-1" d="M826.05,364.8a.5.5,0,0,0-.69.17,33.69,33.69,0,0,0-2.94,6.07,17.4,17.4,0,0,1-3.9,6.08.5.5,0,0,0,0,.71.5.5,0,0,0,.71,0,18.58,18.58,0,0,0,4.12-6.44,32.33,32.33,0,0,1,2.85-5.89A.5.5,0,0,0,826.05,364.8Z"/><path class="cls-1" d="M811.84,382.25a74.8,74.8,0,0,1-13.61,6,.5.5,0,0,0-.3.64.5.5,0,0,0,.63.31,76.26,76.26,0,0,0,13.79-6.09.5.5,0,1,0-.51-.86Z"/><path class="cls-1" d="M803.52,220a.5.5,0,0,0-.07-.7.49.49,0,0,0-.7.06,37.13,37.13,0,0,1-5.17,5c-1.77,1.42-3.57,2.78-5.42,4.05a.5.5,0,0,0-.13.7.51.51,0,0,0,.7.13c1.87-1.3,3.69-2.66,5.47-4.1A38.13,38.13,0,0,0,803.52,220Z"/><path class="cls-1" d="M840.16,350.14a57.6,57.6,0,0,0-10.17,8.7.5.5,0,1,0,.74.67,56.61,56.61,0,0,1,10-8.55.49.49,0,0,0,.13-.69A.5.5,0,0,0,840.16,350.14Z"/><path class="cls-1" d="M872.87,336.06a.5.5,0,0,0-.62-.33c-1.62.48-3.8,1.15-6.35,2a.51.51,0,0,0-.31.64.5.5,0,0,0,.63.31c2.54-.87,4.7-1.53,6.31-2A.5.5,0,0,0,872.87,336.06Z"/><path class="cls-1" d="M739.19,470.11a.5.5,0,0,0-.5.51,44.36,44.36,0,0,1-.69,8.5,47.87,47.87,0,0,1-1.61,6.55.5.5,0,0,0,.32.63.49.49,0,0,0,.63-.32,48.46,48.46,0,0,0,1.65-6.69,45.46,45.46,0,0,0,.7-8.69A.5.5,0,0,0,739.19,470.11Z"/><path class="cls-1" d="M858.75,340.41a110.06,110.06,0,0,0-12.07,5.72.5.5,0,1,0,.48.87,110,110,0,0,1,12-5.66.5.5,0,0,0-.38-.93Z"/><path class="cls-1" d="M745.6,246q-6.58,1.08-13.42,1.66a.51.51,0,0,0-.46.55.5.5,0,0,0,.54.45q6.87-.6,13.51-1.67a.5.5,0,0,0-.17-1Z"/><path class="cls-1" d="M744.83,404.11a40.05,40.05,0,0,0-6.62,3.69,22.76,22.76,0,0,0-5.6,5.56.5.5,0,1,0,.82.57,21.6,21.6,0,0,1,5.35-5.31,40.68,40.68,0,0,1,6.46-3.6.5.5,0,0,0,.25-.67A.49.49,0,0,0,744.83,404.11Z"/><path class="cls-1" d="M767.29,396.8c-5.06,1.33-10,2.69-14.42,4.19a.5.5,0,1,0,.32.95c4.43-1.49,9.3-2.85,14.36-4.17a.5.5,0,0,0-.26-1Z"/><path class="cls-1" d="M786.32,232.67a.49.49,0,0,0-.68-.18,101.39,101.39,0,0,1-12.13,5.9.5.5,0,0,0,.37.93,101.36,101.36,0,0,0,12.26-6A.49.49,0,0,0,786.32,232.67Z"/><path class="cls-1" d="M790.08,390.81c-4.7,1.37-9.6,2.62-14.48,3.86a.51.51,0,0,0-.36.61.5.5,0,0,0,.61.36c4.87-1.24,9.79-2.5,14.51-3.87a.49.49,0,0,0,.34-.62A.5.5,0,0,0,790.08,390.81Z"/><path class="cls-1" d="M551.25,508.44q-6.71-1.19-13.4-2.4a.5.5,0,1,0-.17,1c4.45.81,8.93,1.61,13.4,2.4a.5.5,0,1,0,.17-1Z"/><path class="cls-1" d="M503.13,500.68l5.85,1.07a.5.5,0,0,0,.18-1l-6.68-1.22c-2.4-.44-4.8-.88-7.18-1.3a.5.5,0,0,0-.58.4.51.51,0,0,0,.41.58l6.88,1.25c.72,2.18,1.57,4.57,2.58,7.11a.49.49,0,0,0,.65.28.5.5,0,0,0,.28-.64C504.6,504.89,503.81,502.7,503.13,500.68Z"/><path class="cls-1" d="M497.41,311.48a.48.48,0,0,0,.7,0,.5.5,0,0,0,0-.71,78.41,78.41,0,0,1-9.23-10.38.48.48,0,0,0-.69-.11.49.49,0,0,0-.11.7A79.06,79.06,0,0,0,497.41,311.48Z"/><path class="cls-1" d="M509,515.44a.49.49,0,0,0-.66-.24.51.51,0,0,0-.25.66c2.08,4.5,4.51,9.24,7.29,14a.5.5,0,0,0,.68.17.49.49,0,0,0,.18-.68C513.53,524.62,511.11,519.92,509,515.44Z"/><path class="cls-1" d="M530.61,505.22a.5.5,0,0,0-.4-.58l-13.4-2.46a.5.5,0,1,0-.18,1l13.4,2.47A.51.51,0,0,0,530.61,505.22Z"/><path class="cls-1" d="M521,536.89a.5.5,0,0,0-.69-.14.51.51,0,0,0-.14.7,115.37,115.37,0,0,0,9.66,12.45.5.5,0,0,0,.75-.67A113.67,113.67,0,0,1,521,536.89Z"/><path class="cls-1" d="M534.13,335.91q-6.32-3.51-12.12-7.12a.49.49,0,0,0-.69.16.48.48,0,0,0,.16.68c3.87,2.43,7.94,4.81,12.17,7.15a.5.5,0,1,0,.48-.87Z"/><path class="cls-1" d="M487.1,496.79c-4.86-.86-9.66-1.69-14.36-2.47a.51.51,0,0,0-.58.42.5.5,0,0,0,.41.57q7.06,1.17,14.36,2.46a.5.5,0,0,0,.58-.41A.48.48,0,0,0,487.1,496.79Z"/><path class="cls-1" d="M614.68,518q-6.67-.75-13.51-1.66a.5.5,0,0,0-.13,1c4.55.6,9.07,1.15,13.53,1.65a.5.5,0,0,0,.55-.44A.49.49,0,0,0,614.68,518Z"/><path class="cls-1" d="M374.2,492.76q-6.68,1.8-13.46,3.92a.5.5,0,0,0,.3,1q6.76-2.11,13.42-3.91a.5.5,0,0,0-.26-1Z"/><path class="cls-1" d="M464.51,493c-4.93-.77-9.74-1.49-14.43-2.13a.5.5,0,0,0-.13,1c4.67.64,9.48,1.36,14.41,2.13a.5.5,0,0,0,.57-.41A.51.51,0,0,0,464.51,493Z"/><path class="cls-1" d="M441.82,489.79c-5-.61-9.87-1.12-14.52-1.5a.5.5,0,1,0-.08,1q6.94.59,14.47,1.5a.5.5,0,1,0,.13-1Z"/><path class="cls-1" d="M419,487.72c-5.19-.27-10.07-.35-14.61-.21a.5.5,0,0,0,0,1c4.51-.14,9.36-.06,14.53.21a.5.5,0,0,0,.52-.48A.49.49,0,0,0,419,487.72Z"/><path class="cls-1" d="M396,488.07a69.53,69.53,0,0,0-7.24,1.15q-3.41.73-6.84,1.56a.5.5,0,0,0,.24,1q3.42-.83,6.81-1.55a70.35,70.35,0,0,1,7.14-1.13.5.5,0,0,0,.44-.55A.5.5,0,0,0,396,488.07Z"/><path class="cls-1" d="M573.65,355.36q-6.46-2.92-12.75-5.87a.5.5,0,0,0-.67.24.49.49,0,0,0,.24.66q6.28,3,12.77,5.88a.5.5,0,0,0,.66-.25A.49.49,0,0,0,573.65,355.36Z"/><path class="cls-1" d="M576.24,232.06q-6.91-.88-13.54-1.54a.52.52,0,0,0-.55.45.51.51,0,0,0,.45.55q6.6.64,13.52,1.54a.5.5,0,0,0,.12-1Z"/><path class="cls-1" d="M593.85,364.25q-6.48-2.81-12.87-5.62a.5.5,0,1,0-.4.91q6.38,2.82,12.87,5.63a.5.5,0,1,0,.4-.92Z"/><path class="cls-1" d="M593.48,515.27c-4.46-.64-9-1.31-13.47-2a.51.51,0,0,0-.57.42.5.5,0,0,0,.42.57c4.51.71,9,1.38,13.47,2a.5.5,0,0,0,.15-1Z"/><path class="cls-1" d="M597.36,235.08q-6.83-1.05-13.46-2a.5.5,0,0,0-.56.43.49.49,0,0,0,.42.56q6.63.93,13.45,2a.5.5,0,0,0,.57-.42A.51.51,0,0,0,597.36,235.08Z"/><path class="cls-1" d="M600.82,368.35l12.9,5.55a.5.5,0,0,0,.4-.92l-12.9-5.55a.5.5,0,0,0-.4.92Z"/><path class="cls-1" d="M572.34,512q-6.71-1.09-13.43-2.25a.48.48,0,0,0-.57.4.49.49,0,0,0,.4.58q6.74,1.15,13.43,2.26a.51.51,0,0,0,.58-.42A.5.5,0,0,0,572.34,512Z"/><path class="cls-1" d="M553.69,346q-6.44-3.13-12.54-6.34a.5.5,0,1,0-.47.89q6.12,3.21,12.57,6.35a.5.5,0,0,0,.67-.23A.51.51,0,0,0,553.69,346Z"/><path class="cls-1" d="M549.6,564.5a61.3,61.3,0,0,1-12.69-9,.5.5,0,1,0-.67.74,62.27,62.27,0,0,0,12.9,9.1.51.51,0,0,0,.68-.22A.5.5,0,0,0,549.6,564.5Z"/><path class="cls-1" d="M353.12,499.15q-6.56,2.19-13.21,4.62a.5.5,0,1,0,.34.94q6.64-2.43,13.19-4.62a.5.5,0,1,0-.32-.94Z"/><path class="cls-1" d="M565.43,569.21a39.59,39.59,0,0,1-7.61-1.41.5.5,0,0,0-.62.34.51.51,0,0,0,.34.62,40.91,40.91,0,0,0,7.81,1.45.51.51,0,0,0,.54-.46A.5.5,0,0,0,565.43,569.21Z"/><path class="cls-1" d="M555,229.86q-7-.53-13.62-.63a.51.51,0,0,0-.51.5.5.5,0,0,0,.5.5c4.36.07,8.89.28,13.56.63a.5.5,0,0,0,.53-.47A.49.49,0,0,0,555,229.86Z"/></svg>