<svg id="Layer_1" data-name="Layer 1" xmlns="http://www.w3.org/2000/svg" viewBox="0 0 136 137"><defs><style>.cls-1{fill:#6fabf9;}</style></defs><path class="cls-1" d="M40.79,30.48l1.33-.84,2.7,4.3a3.26,3.26,0,0,0,1.44,1.41A1.92,1.92,0,0,0,48,35a3.27,3.27,0,0,0,1.5-2A3.09,3.09,0,0,0,49,30.58l-2.36-3.77L48,26l4.64,7.39-1.33.83L50.48,33a4.41,4.41,0,0,1-2.12,3.37,3.44,3.44,0,0,1-2.53.61,3.53,3.53,0,0,1-2.1-1.77Z"/><path class="cls-1" d="M53,24.32l.44,1.44A4.28,4.28,0,0,1,56.29,23a3,3,0,0,1,2.75.17,4.7,4.7,0,0,1,1.54,2.5l1.53,4.95-1.5.47-1.5-4.84a3.33,3.33,0,0,0-1-1.75,1.9,1.9,0,0,0-1.74-.12,3.16,3.16,0,0,0-2,1.55,3.12,3.12,0,0,0-.17,2.5l1.31,4.23L54,33.12l-2.58-8.34Z"/><path class="cls-1" d="M63.13,19l1.57-.05.15,4.37a4.09,4.09,0,0,1,3.3-1.71,4.51,4.51,0,0,1,3.42,1.2A4.57,4.57,0,0,1,73,26.07a4.42,4.42,0,0,1-1.18,3.35,4.61,4.61,0,0,1-3.32,1.38,4.19,4.19,0,0,1-3.42-1.42l0,1.29-1.57,0Zm7.25,4.85a3.56,3.56,0,0,0-4.65.17A3.23,3.23,0,0,0,65,26.34a3,3,0,0,0,.92,2.25,3.18,3.18,0,0,0,2.38.75,3.12,3.12,0,0,0,2.29-.9,3.07,3.07,0,0,0,.76-2.33A3.17,3.17,0,0,0,70.38,23.8Z"/><path class="cls-1" d="M83.54,29.12l-7.65-1.83a2.64,2.64,0,0,0,.36,2.21,3.27,3.27,0,0,0,2,1.26,3.71,3.71,0,0,0,1.81,0A1.94,1.94,0,0,0,81.31,30l1.78.43A4,4,0,0,1,81,32.12a5.34,5.34,0,0,1-3,.06,4.92,4.92,0,0,1-3.13-2,4.49,4.49,0,0,1-.46-3.56,4.51,4.51,0,0,1,2-3,4.79,4.79,0,0,1,3.69-.42,4.68,4.68,0,0,1,3.1,2,4.53,4.53,0,0,1,.44,3.61Zm-7.36-2.91,6,1.43a2.63,2.63,0,0,0-.56-1.93,3.19,3.19,0,0,0-1.87-1.1,3.33,3.33,0,0,0-2.16.13A2.75,2.75,0,0,0,76.18,26.21Z"/><path class="cls-1" d="M90,24,85,34.67,83.56,34l5-10.65Z"/><path class="cls-1" d="M94.7,30.37l-4.86,7.25-1.31-.88,4.86-7.25Zm.63-.94L94,28.55,95.09,27l1.3.88Z"/><path class="cls-1" d="M102,43.48l-5.5-5.62a2.65,2.65,0,0,0-.87,2.06,3.27,3.27,0,0,0,1,2.14,3.62,3.62,0,0,0,1.52,1,2,2,0,0,0,1.49,0L101,44.31a4,4,0,0,1-2.73.34,5.4,5.4,0,0,1-2.6-1.57,4.87,4.87,0,0,1-1.57-3.36A5,5,0,0,1,98.89,35a4.82,4.82,0,0,1,3.35,1.6A4.74,4.74,0,0,1,103.78,40a4.53,4.53,0,0,1-1.54,3.29ZM97.33,37.1l4.3,4.39a2.63,2.63,0,0,0,.56-1.93,3.27,3.27,0,0,0-1-1.93,3.35,3.35,0,0,0-1.9-1A2.74,2.74,0,0,0,97.33,37.1Z"/><path class="cls-1" d="M106.29,41.93l.94,1.63-4.91,6.24,7.83-1.15.92,1.59-9.5,1-.87-1.52Z"/><path class="cls-1" d="M109.57,60.83a7.57,7.57,0,0,1-1.27-2.4,7.74,7.74,0,0,0-.94-1.88,1,1,0,0,0-1.1-.31,1.18,1.18,0,0,0-.84.75,2.36,2.36,0,0,0,0,1.47,4.36,4.36,0,0,0,1.22,2.16,1.76,1.76,0,0,0,1.67.55Zm-3,.86a4.41,4.41,0,0,1-2.49-3.13,3.86,3.86,0,0,1,0-2.58,2.35,2.35,0,0,1,1.65-1.33,2.77,2.77,0,0,1,1-.09,1.92,1.92,0,0,1,.81.3,2.68,2.68,0,0,1,.68.7,5.56,5.56,0,0,1,.58,1c.16.34.34.77.55,1.28.06.14.13.33.22.57s.15.4.19.52.09.25.16.42a3.61,3.61,0,0,0,.19.39,2.29,2.29,0,0,0,.17.27,1,1,0,0,0,.2.23l.21.11a.54.54,0,0,0,.27.07l.32-.06a1.09,1.09,0,0,0,.84-.81,3.51,3.51,0,0,0-.13-1.76,3.67,3.67,0,0,0-.92-1.8,1.6,1.6,0,0,0-1.47-.33l-.42-1.58c2-.43,3.37.66,4.06,3.26a5.35,5.35,0,0,1,.17,3.14,2.56,2.56,0,0,1-1.92,1.46l-3.42.91a2.4,2.4,0,0,0-1,.43.63.63,0,0,0-.14.67,2.93,2.93,0,0,0,.17.44l-1.22.33a6.61,6.61,0,0,1-.43-1.18A1.45,1.45,0,0,1,106.56,61.69Z"/><path class="cls-1" d="M117.42,65.83l0,1.57L113,67.35a4.08,4.08,0,0,1,1.56,3.38,4.47,4.47,0,0,1-4.72,4.61,4.43,4.43,0,0,1-3.3-1.34,4.58,4.58,0,0,1-1.22-3.37,4.17,4.17,0,0,1,1.57-3.36h-1.28l0-1.58Zm-5.18,7a3.54,3.54,0,0,0,0-4.65,3.18,3.18,0,0,0-2.32-.89,3,3,0,0,0-2.3.82,3.26,3.26,0,0,0-.86,2.34,3.18,3.18,0,0,0,.8,2.33,3.06,3.06,0,0,0,2.29.87A3.18,3.18,0,0,0,112.24,72.85Z"/><path class="cls-1" d="M115.88,80.49,104.4,77.86l.35-1.53L116.23,79Z"/><path class="cls-1" d="M103.28,91.33l3.28-7.15a2.65,2.65,0,0,0-2.23-.08,3.31,3.31,0,0,0-1.64,1.73,3.86,3.86,0,0,0-.38,1.77,2,2,0,0,0,.58,1.38l-.76,1.66a3.94,3.94,0,0,1-1.29-2.43,5.4,5.4,0,0,1,.53-3A4.9,4.9,0,0,1,104,82.55a5.05,5.05,0,0,1,6.12,2.83,4.76,4.76,0,0,1-.3,3.7,4.68,4.68,0,0,1-2.59,2.65,4.56,4.56,0,0,1-3.62-.27Zm4.28-6.65L105,90.26a2.59,2.59,0,0,0,2-.17,3.22,3.22,0,0,0,1.44-1.62,3.32,3.32,0,0,0,.3-2.15A2.7,2.7,0,0,0,107.56,84.68Z"/><path class="cls-1" d="M98.84,103l-1-1.15a4.26,4.26,0,0,1-1.59,3.67,3,3,0,0,1-2.6.93,4.71,4.71,0,0,1-2.39-1.7l-3.35-4,1.2-1,3.27,3.87a3.28,3.28,0,0,0,1.64,1.2,1.89,1.89,0,0,0,1.64-.56,3.18,3.18,0,0,0,1.19-2.19,3.12,3.12,0,0,0-.82-2.37L93.2,96.32l1.2-1L100,102Z"/><path class="cls-1" d="M87.77,113.64l-.66-1.26a5.39,5.39,0,0,0,1-.41,1.31,1.31,0,0,0,.66-.6,1.05,1.05,0,0,0-.16-.79l-.28-.52-1.89,1-.62-1.18,1.9-1-3.44-6.55,1.4-.73,3.43,6.55,1.37-.71.61,1.17-1.36.72.42.8a2.14,2.14,0,0,1,.28,1.69,2.44,2.44,0,0,1-1.28,1.26A7.7,7.7,0,0,1,87.77,113.64Z"/><path class="cls-1" d="M82.86,114.64l-1.5.47L80.69,113l-2,.64-.4-1.27,2-.64-1.55-4.93a1,1,0,0,0-.47-.67,1.14,1.14,0,0,0-.85,0,4.77,4.77,0,0,0-1,.45L76,105.22a9.76,9.76,0,0,1,1.35-.58,2.52,2.52,0,0,1,1.77,0,2,2,0,0,1,1,1.29l1.69,5.37,1.46-.46.4,1.27-1.46.46Z"/><path class="cls-1" d="M58.21,111.16l1.63.16a2.23,2.23,0,0,0,.79,1.34,3,3,0,0,0,1.59.6A3.29,3.29,0,0,0,65.09,108a3.12,3.12,0,0,0-2.17-1,3.05,3.05,0,0,0-1.86.37,2.29,2.29,0,0,0-1,1.42l-1.64-.15a3.93,3.93,0,0,1,1.69-2.44,4.64,4.64,0,0,1,3-.64,4.71,4.71,0,0,1,3.27,1.55,4.43,4.43,0,0,1,1,3.45,4.49,4.49,0,0,1-1.62,3.22,4.67,4.67,0,0,1-3.53,1,4.76,4.76,0,0,1-2.79-1.12A3.63,3.63,0,0,1,58.21,111.16Z"/><path class="cls-1" d="M54.1,111.7a4.94,4.94,0,0,1-3.79-.06,4.86,4.86,0,0,1-2.87-2.45,4.46,4.46,0,0,1,0-3.62,4.39,4.39,0,0,1,2.41-2.68,5.75,5.75,0,0,1,6.66,2.51,4.37,4.37,0,0,1,.05,3.6A4.44,4.44,0,0,1,54.1,111.7Zm-5.16-3a3.16,3.16,0,0,0,1.89,1.62,3.19,3.19,0,0,0,2.5,0A3.56,3.56,0,0,0,55,106a3.23,3.23,0,0,0-1.91-1.62,2.94,2.94,0,0,0-4.1,1.84A3.07,3.07,0,0,0,48.94,108.66Z"/><path class="cls-1" d="M40.12,109.32l6.37-9.9,1.32.85-6.37,9.9Z"/><path class="cls-1" d="M34.28,104.69l7.78-8.83,1.18,1-7.78,8.83Z"/><path class="cls-1" d="M30.77,88.44l4.71,6.3a2.69,2.69,0,0,0,1.14-1.93,3.3,3.3,0,0,0-.75-2.26,3.66,3.66,0,0,0-1.37-1.18A2,2,0,0,0,33,89.23l-1.1-1.47a4,4,0,0,1,2.75,0A5.35,5.35,0,0,1,37,89.68a4.88,4.88,0,0,1,1.12,3.54,5.05,5.05,0,0,1-5.41,4,5.45,5.45,0,0,1-4.2-5.57,4.5,4.5,0,0,1,2-3.05Zm3.8,6.94-3.69-4.92a2.72,2.72,0,0,0-.81,1.84,3.75,3.75,0,0,0,2.49,3.33A2.76,2.76,0,0,0,34.57,95.38Z"/><path class="cls-1" d="M25.36,79.31,26,80.83a2.2,2.2,0,0,0-.83,1.32,2.89,2.89,0,0,0,.19,1.69,3,3,0,0,0,4.17,1.78A3.08,3.08,0,0,0,31.31,84a3.13,3.13,0,0,0-.07-2.4,2.92,2.92,0,0,0-1.18-1.48,2.26,2.26,0,0,0-1.73-.27l-.62-1.53a4,4,0,0,1,2.94.39,4.63,4.63,0,0,1,2,2.41,4.75,4.75,0,0,1,.11,3.62,4.42,4.42,0,0,1-2.62,2.45,4.47,4.47,0,0,1-3.6,0A4.65,4.65,0,0,1,24,84.52a4.74,4.74,0,0,1-.28-3A3.63,3.63,0,0,1,25.36,79.31Z"/><path class="cls-1" d="M19.91,76.62l-.25-1.56,2.19-.36-.35-2.11,1.32-.22.34,2.12,5.11-.84a1.08,1.08,0,0,0,.73-.37,1.24,1.24,0,0,0,.09-.85,4.88,4.88,0,0,0-.31-1l1.43-.23a9.64,9.64,0,0,1,.38,1.41,2.49,2.49,0,0,1-.2,1.76,2,2,0,0,1-1.42.79L23.42,76l.25,1.5-1.31.22-.25-1.51Z"/><path class="cls-1" d="M21.43,67.11h8.72V68.7H21.43Zm-1.14,0v1.58H18.38V67.11Z"/><path class="cls-1" d="M23,61a4.94,4.94,0,0,1-.49-3.76,4.83,4.83,0,0,1,2-3.2,4.45,4.45,0,0,1,3.58-.57,4.41,4.41,0,0,1,3,2,5.75,5.75,0,0,1-1.51,7A4.45,4.45,0,0,1,26,63,4.51,4.51,0,0,1,23,61Zm2.25-5.56a3.68,3.68,0,0,0-1,4.59,3.1,3.1,0,0,0,2.08,1.33A3.1,3.1,0,0,0,28.75,61a3.21,3.21,0,0,0,1.32-2.12,3.16,3.16,0,0,0-.33-2.46,3,3,0,0,0-2.08-1.33A3.1,3.1,0,0,0,25.21,55.45Z"/><path class="cls-1" d="M26.11,48l1.34.7a4.28,4.28,0,0,1,.07-4,3,3,0,0,1,2.06-1.83,4.63,4.63,0,0,1,2.85.66l4.6,2.4-.72,1.4-4.49-2.34a3.29,3.29,0,0,0-2-.5,1.87,1.87,0,0,0-1.31,1.14A3.12,3.12,0,0,0,29.92,50l3.93,2-.73,1.4-7.74-4Z"/></svg>