<svg width="230" height="199" viewBox="0 0 230 199" fill="none" xmlns="http://www.w3.org/2000/svg">
<path d="M226.672 73.0471C209.71 119.532 168.411 140.929 126.375 140.929C84.3378 140.929 32.714 121.007 23.1269 73.0471C13.5399 25.0869 90.949 0 141.861 0C192.774 0 243.633 26.5626 226.672 73.0471Z" fill="#243563"/>
<path d="M71.8166 147.861C68.9392 155.812 61.9332 159.473 54.802 159.473C47.6707 159.473 38.9131 156.065 37.2868 147.861C35.6604 139.657 48.7923 135.366 57.4292 135.366C66.0661 135.366 74.6941 139.91 71.8166 147.861Z" fill="#243563"/>
<path d="M39.0035 170.227C39.0035 176.364 32.5365 179.87 26.9941 179.87C21.4518 179.87 18.1894 177.947 16.9254 171.98C15.6614 166.013 21.489 162.337 27.8782 161.46C34.2674 160.583 39.0035 164.09 39.0035 170.227Z" fill="#243563"/>
<path d="M16.7515 191.664C16.7515 195.959 11.9013 198.414 7.7445 198.414C3.58774 198.414 1.14093 197.068 0.192928 192.891C-0.755076 188.714 3.61564 186.141 8.40754 185.527C13.1994 184.913 16.7515 187.368 16.7515 191.664Z" fill="#243563"/>
<path d="M109.883 28.5264V36.5371H120.237V28.5264L125.637 28.5264V50.0663H120.237V40.9578H109.883V50.0663H104.483V28.5264H109.883Z" fill="white"/>
<path d="M135.339 34.0152V50.0663H130.354V34.0152H135.339ZM130.354 28.556H135.339V32.3834H130.354V28.556Z" fill="white"/>
<path d="M140.3 50.0663V44.9038H145.7V50.0663H140.3ZM141.19 43.4797L140.3 33.4515V28.5264H145.7V33.4515L144.84 43.4797H141.19Z" fill="white"/>
<path d="M64.497 56.3414V77.8813H59.0972V56.3414H64.497Z" fill="white"/>
<path d="M70.2709 57.5578H75.2554V61.8302H78.9937V65.6575H75.2554V72.3925C75.2554 73.3815 75.3345 74.0045 75.4927 74.2617C75.6707 74.499 76.1553 74.6177 76.9465 74.6177H78.9937V78.445H75.6114C73.7521 78.445 72.3972 78.1483 71.5467 77.5549C70.6962 76.9616 70.2709 75.9627 70.2709 74.5583V65.6575H67.927V61.8302H70.2709V57.5578Z" fill="white"/>
<path d="M85.9616 59.6347L81.2145 55.0359H87.5341L89.7593 59.6347H85.9616Z" fill="white"/>
<path d="M113.701 66.607H108.746C108.509 65.2224 107.203 64.5301 104.83 64.5301C103.801 64.5301 103 64.6686 102.427 64.9455C101.873 65.2026 101.596 65.5488 101.596 65.9839C101.596 66.4388 101.893 66.785 102.486 67.0223C103.079 67.2597 104.029 67.4278 105.334 67.5267L108.835 67.7937C110.576 67.9322 111.901 68.4168 112.811 69.2475C113.741 70.0585 114.205 71.1661 114.205 72.5705C114.205 74.4891 113.444 75.9528 111.921 76.9616C110.398 77.9505 108.153 78.445 105.186 78.445C99.1927 78.445 96.0774 76.4967 95.8401 72.6002H101.092C101.171 73.4309 101.566 74.0243 102.278 74.3803C103.01 74.7364 104.118 74.9144 105.601 74.9144C106.669 74.9144 107.51 74.766 108.123 74.4693C108.736 74.1726 109.043 73.7968 109.043 73.3419C109.043 72.8672 108.835 72.5507 108.42 72.3925C108.024 72.2145 107.302 72.0859 106.254 72.0068L101.744 71.6211C100.083 71.4826 98.7675 70.9684 97.7983 70.0783C96.8488 69.1882 96.3741 68.0608 96.3741 66.696C96.3741 64.9554 97.1159 63.6202 98.5993 62.6906C100.083 61.7412 102.249 61.2665 105.097 61.2665C107.827 61.2665 109.943 61.7412 111.446 62.6906C112.949 63.6202 113.701 64.9257 113.701 66.607Z" fill="white"/>
<path d="M133.521 64.2334C135.4 62.2555 137.497 61.2665 139.811 61.2665C141.354 61.2665 142.679 61.583 143.787 62.2159C144.894 62.8488 145.666 63.6895 146.101 64.7378C147.881 62.4236 150.096 61.2665 152.747 61.2665C155.298 61.2665 157.079 61.9291 158.087 63.2543C159.116 64.5598 159.63 66.4883 159.63 69.0398V77.8813H154.646V70.1079C154.646 68.3871 154.398 67.1212 153.904 66.3103C153.409 65.4993 152.49 65.0938 151.145 65.0938C149.74 65.0938 148.613 65.5488 147.762 66.4586C146.912 67.3487 146.487 68.5157 146.487 69.9596V77.8813H141.68V70.1079C141.68 68.3871 141.433 67.1212 140.938 66.3103C140.444 65.4993 139.524 65.0938 138.179 65.0938C136.775 65.0938 135.647 65.5488 134.797 66.4586C133.946 67.3487 133.521 68.5157 133.521 69.9596V77.8813H128.537V61.8302H133.521V64.2334Z" fill="white"/>
<path d="M181.781 72.6595C181.109 74.499 179.961 75.9231 178.339 76.9319C176.717 77.9406 174.73 78.445 172.376 78.445C169.389 78.445 167.025 77.6736 165.285 76.1308C163.564 74.588 162.704 72.4914 162.704 69.8409C162.704 67.2102 163.564 65.1235 165.285 63.5807C167.006 62.0379 169.369 61.2665 172.376 61.2665C175.481 61.2665 177.865 62.0676 179.526 63.6697C181.207 65.2521 182.048 67.5168 182.048 70.464V71.1464H168.311C168.311 72.3134 168.687 73.2529 169.439 73.965C170.19 74.6572 171.169 75.0034 172.376 75.0034C174.354 75.0034 175.659 74.2221 176.292 72.6595H181.781ZM168.459 67.8234H176.53C176.431 66.8344 176.015 66.0531 175.283 65.4795C174.571 64.8861 173.642 64.5895 172.495 64.5895C171.347 64.5895 170.408 64.8861 169.676 65.4795C168.964 66.0531 168.558 66.8344 168.459 67.8234Z" fill="white"/>
<path d="M185.775 77.8813V72.7188H191.175V76.2198C191.175 78.4549 190.73 80.4625 189.84 82.2427C188.95 84.0229 187.595 85.1305 185.775 85.5657V82.302C186.389 82.0845 186.913 81.5306 187.348 80.6406C187.803 79.7703 188.03 78.8505 188.03 77.8813H185.775Z" fill="white"/>
<path d="M106.364 84.1564V105.696H100.965V84.1564H106.364Z" fill="white"/>
<path d="M129.376 95.8164H123.887C123.749 94.8868 123.324 94.1747 122.612 93.6802C121.919 93.166 120.98 92.9088 119.793 92.9088C118.448 92.9088 117.36 93.344 116.529 94.2143C115.718 95.0846 115.313 96.2417 115.313 97.6856C115.313 99.1295 115.718 100.287 116.529 101.157C117.36 102.007 118.448 102.433 119.793 102.433C120.94 102.433 121.89 102.136 122.641 101.543C123.413 100.929 123.838 100.138 123.917 99.1691H129.554C129.396 101.266 128.417 102.977 126.617 104.302C124.837 105.607 122.542 106.26 119.734 106.26C116.767 106.26 114.383 105.479 112.583 103.916C110.803 102.354 109.913 100.267 109.913 97.6559C109.913 95.0055 110.813 92.9187 112.613 91.3957C114.433 89.8529 116.925 89.0815 120.09 89.0815C122.839 89.0815 125.005 89.665 126.587 90.832C128.17 91.999 129.099 93.6605 129.376 95.8164Z" fill="white"/>
<path d="M150.663 100.475C149.99 102.314 148.843 103.738 147.221 104.747C145.599 105.756 143.612 106.26 141.258 106.26C138.271 106.26 135.907 105.489 134.167 103.946C132.446 102.403 131.586 100.306 131.586 97.6559C131.586 95.0252 132.446 92.9385 134.167 91.3957C135.888 89.8529 138.251 89.0815 141.258 89.0815C144.363 89.0815 146.747 89.8826 148.408 91.4847C150.089 93.0671 150.93 95.3318 150.93 98.279V98.9614H137.193C137.193 100.128 137.569 101.068 138.321 101.78C139.072 102.472 140.051 102.818 141.258 102.818C143.236 102.818 144.541 102.037 145.174 100.475H150.663ZM137.341 95.6384H145.412C145.313 94.6494 144.897 93.8681 144.165 93.2945C143.453 92.7011 142.524 92.4045 141.376 92.4045C140.229 92.4045 139.29 92.7011 138.558 93.2945C137.846 93.8681 137.44 94.6494 137.341 95.6384Z" fill="white"/>
</svg>
